<?xml version="1.0" ?><!DOCTYPE svg  PUBLIC '-//W3C//DTD SVG 1.1//EN'  'http://www.w3.org/Graphics/SVG/1.1/DTD/svg11.dtd'><svg height="6.82666in" style="shape-rendering:geometricPrecision; text-rendering:geometricPrecision; image-rendering:optimizeQuality; fill-rule:evenodd; clip-rule:evenodd" viewBox="0 0 6.82666 6.82666" width="6.82666in" xml:space="preserve" xmlns="http://www.w3.org/2000/svg" xmlns:xlink="http://www.w3.org/1999/xlink"><defs><style type="text/css">
   <![CDATA[
    .fil1 {fill:#171717}
    .fil0 {fill:#5C6BC0}
    .fil2 {fill:#E1E1E1}
    .fil3 {fill:#FFA000}
   ]]>
  </style></defs><g id="Layer_x0020_1"><path class="fil0" d="M5.79596 6.66846c0.123547,-0.0240906 0.232598,-0.0549567 0.328213,-0.096 0.0977047,-0.0344724 0.188437,-0.0887874 0.269102,-0.178035 0.102177,-0.103059 0.175862,-0.238449 0.224713,-0.418236 0.253268,-0.932126 0.282984,-4.01662 0.0506575,-4.94449 -0.0240591,-0.123622 -0.0548858,-0.232748 -0.0958858,-0.328425 -0.0343622,-0.0977165 -0.0886339,-0.188437 -0.177646,-0.269146 -0.103146,-0.10252 -0.23874,-0.176433 -0.418925,-0.22539 -0.932598,-0.253291 -4.01682,-0.283126 -4.94484,-0.0505709 -0.123362,0.0240276 -0.23226,0.0548071 -0.327791,0.0957126 -0.0979488,0.0343819 -0.188898,0.0887756 -0.269756,0.178075 -0.10235,0.103102 -0.176142,0.238598 -0.225059,0.418591 -0.253276,0.932858 -0.283157,4.0163 -0.0506457,4.94461 0.0241339,0.12398 0.0550787,0.233374 0.0962598,0.329248 0.0344409,0.0974961 0.0886378,0.188047 0.177626,0.268559 0.103102,0.102327 0.238579,0.176122 0.418547,0.225028 0.931783,0.25328 4.0182,0.283028 4.94543,0.0504724z"/><path class="fil1" d="M1.25706 1.78925l4.31254 0c0.222059,0 0.403732,0.181669 0.403732,0.403728l0 2.44071c0,0.222059 -0.181673,0.403728 -0.403732,0.403728l-4.31254 0c-0.222051,0 -0.403724,-0.181669 -0.403724,-0.403728l0 -2.44071c0,-0.222059 0.181673,-0.403728 0.403724,-0.403728z"/><path class="fil2" d="M1.25706 1.86924c-0.177898,0 -0.323728,0.145835 -0.323728,0.323732l0 2.44071c0,0.177898 0.145831,0.323732 0.323728,0.323732l4.31254 0c0.177902,0 0.323736,-0.145827 0.323736,-0.323732l0 -2.44071c0,-0.177906 -0.145835,-0.323732 -0.323736,-0.323732l-4.31254 0z"/><path class="fil1" d="M2.31871 3.10852l0 0.599579 0.156039 0 0 -0.0643425c0.0214921,0.0272165 0.0414488,0.0456378 0.0597323,0.0555472 0.0241457,0.012563 0.0509409,0.0188425 0.0801142,0.0188425 0.0340512,0 0.0650354,-0.00892913 0.0929528,-0.0267953 0.0279094,-0.0178661 0.0498228,-0.0449409 0.0655906,-0.0810906 0.0157756,-0.0362874 0.0237283,-0.0781535 0.0237283,-0.12561 0,-0.0713189 -0.0173071,-0.126028 -0.0519173,-0.16413 -0.0346142,-0.0381024 -0.0782992,-0.0570827 -0.131193,-0.0570827 -0.0256772,0 -0.0489882,0.00432677 -0.070063,0.0129803 -0.0212126,0.00879134 -0.0400551,0.0217717 -0.0566654,0.0392205l0 -0.207118 -0.168319 0zm0.188138 0.462106c-0.0140945,-0.016748 -0.0210709,-0.0439646 -0.0210709,-0.0815079 0,-0.0341969 0.00711417,-0.0597362 0.0214882,-0.0764843 0.0142362,-0.0168898 0.0326614,-0.0252598 0.0552717,-0.0252598 0.0187008,0 0.034752,0.00809449 0.0478701,0.0242835 0.0132598,0.0160512 0.0198189,0.0414528 0.0198189,0.0759213 0,0.0390827 -0.00669685,0.0668543 -0.0202402,0.0834646 -0.0133976,0.0166102 -0.0301457,0.0248425 -0.0499606,0.0248425 -0.0214961,0 -0.0392165,-0.00837402 -0.0531772,-0.0252598z"/><polygon class="fil1" points="2.88228,3.27348 2.88228,3.7081 3.04893,3.7081 3.04893,3.27348 "/><polygon class="fil1" points="2.88228,3.22157 3.04893,3.22157 3.04893,3.10852 2.88228,3.10852 "/><path class="fil1" d="M3.12848 3.27348l0 0.12226 0.0611299 0 0 0.152827c0,0.0484331 0.00474803,0.0836024 0.0140984,0.105236 0.00948819,0.0216299 0.0240079,0.0378228 0.0435472,0.0484291 0.0196772,0.0106063 0.0502441,0.0159094 0.0916929,0.0159094 0.0357283,0 0.0741102,-0.00446457 0.115283,-0.0135394l-0.0122835 -0.115142c-0.022189,0.00712205 -0.0393583,0.0106063 -0.0516417,0.0106063 -0.0136732,0 -0.0233071,-0.00460236 -0.028748,-0.013815 -0.00349213,-0.006 -0.00530315,-0.0182874 -0.00530315,-0.0367087l0 -0.153803 0.0912756 0 0 -0.12226 -0.0912756 0 0 -0.164965 -0.166646 0.0852717 0 0.0796929 -0.0611299 0z"/><path class="fil1" d="M3.57565 3.3222c-0.0194016,0.0173031 -0.034752,0.0368425 -0.0459173,0.0587559 -0.0152126,0.0297283 -0.0228898,0.0669921 -0.0228898,0.111654 0,0.0428465 0.00627953,0.0771811 0.0188425,0.103142 0.012563,0.0259567 0.0298661,0.0485669 0.0519173,0.067689 0.0221929,0.0192598 0.0485669,0.0332165 0.0791339,0.0418701 0.0307087,0.00851181 0.0690866,0.0128386 0.115283,0.0128386 0.0477323,0 0.0870906,-0.00670079 0.117933,-0.0200984 0.0309843,-0.0133937 0.0565276,-0.0322402 0.0763425,-0.0563858 0.0199606,-0.0242795 0.0341969,-0.0528976 0.0429882,-0.0859724l-0.158268 -0.0175866c-0.00739764,0.0230315 -0.0184213,0.0400551 -0.0333583,0.0512244 -0.0147913,0.0110236 -0.0332165,0.0166102 -0.0549882,0.0166102 -0.0262362,0 -0.0477323,-0.0092126 -0.0646181,-0.0277795 -0.0168898,-0.0185591 -0.0254055,-0.0456339 -0.0254055,-0.0813661 0,-0.0401969 0.00851575,-0.070063 0.0255433,-0.089878 0.0171654,-0.0196811 0.0395,-0.0295906 0.0669921,-0.0295906 0.0219134,0 0.0393583,0.00474803 0.0523386,0.0140984 0.0129764,0.00948819 0.0219094,0.0234449 0.0267953,0.0420118l0.156594 -0.0209409c-0.0150748,-0.0487047 -0.0411732,-0.0856929 -0.078437,-0.111091 -0.0372598,-0.0252638 -0.0912756,-0.0379646 -0.162315,-0.0379646 -0.0506614,0 -0.092252,0.00669685 -0.124772,0.0200984 -0.0205157,0.00837402 -0.0403386,0.0213504 -0.0597362,0.0386614z"/><path class="fil1" d="M4.37299 3.4058c0.0154921,0.018563 0.0231693,0.0466142 0.0231693,0.084437 0,0.0404764 -0.00767717,0.0699213 -0.0230315,0.0882087 -0.0153465,0.0182835 -0.0348898,0.0274961 -0.0587559,0.0274961 -0.0237244,0 -0.0432638,-0.00935039 -0.0588937,-0.0279173 -0.0156339,-0.0185591 -0.0234528,-0.047311 -0.0234528,-0.086248 0,-0.0382441 0.0078189,-0.0667165 0.0235906,-0.0855551 0.0157717,-0.0187047 0.0357283,-0.0280551 0.059874,-0.0280551 0.0228898,0 0.0420079,0.0092126 0.0575,0.0276339zm-0.240614 -0.077878c-0.0446575,0.0429843 -0.0669882,0.0976929 -0.0669882,0.16413 0,0.0711811 0.026378,0.128819 0.0792717,0.172783 0.0429882,0.0355906 0.099374,0.053315 0.16902,0.053315 0.0781535,0 0.139421,-0.0213543 0.183665,-0.0640591 0.0442441,-0.0428465 0.0662953,-0.0975591 0.0662953,-0.164551 0,-0.0594567 -0.0178622,-0.109559 -0.0534567,-0.150311 -0.044378,-0.0505236 -0.109976,-0.0757874 -0.196925,-0.0757874 -0.0759252,0 -0.136217,0.0214961 -0.180882,0.0644803z"/><polygon class="fil1" points="4.64989,3.27348 4.64989,3.7081 4.81654,3.7081 4.81654,3.27348 "/><polygon class="fil1" points="4.64989,3.22157 4.81654,3.22157 4.81654,3.10852 4.64989,3.10852 "/><path class="fil1" d="M4.92289 3.27348l0 0.434614 0.166646 0 0 -0.208795c0,-0.0396339 0.00627953,-0.0669882 0.0187008,-0.0823425 0.0124213,-0.0152126 0.028748,-0.0228898 0.0487087,-0.0228898 0.0181417,0 0.0322402,0.00572441 0.0422913,0.0170276 0.0100433,0.0113071 0.0150709,0.0305669 0.0150709,0.0579213l0 0.239079 0.16748 0 0 -0.276343c0,-0.0573622 -0.0129803,-0.0997913 -0.038937,-0.127146 -0.0261024,-0.0274961 -0.0619685,-0.0411732 -0.108028,-0.0411732 -0.0340551,0 -0.0628031,0.00627953 -0.0865315,0.0187047 -0.0237244,0.0124173 -0.0470354,0.0330748 -0.0702008,0.0621063l0 -0.0707638 -0.155201 0z"/><path class="fil3" d="M2.26876 3.41333c0,-0.267106 -0.216528,-0.483638 -0.483634,-0.483638 -0.267106,0 -0.483638,0.216531 -0.483638,0.483638 0,0.267106 0.216531,0.483638 0.483638,0.483638 0.267106,0 0.483634,-0.216531 0.483634,-0.483638z"/><path class="fil3" d="M1.95425 3.29144c-0.0115866,-0.00737795 -0.0327795,-0.0151929 -0.0634724,-0.0234134l-0.0856063 -0.022937 -0.0347677 0.129748 0.0925827 0.0248071c0.0251142,0.00672835 0.0436102,0.00987008 0.0553504,0.00949213 0.0155984,-0.000413386 0.0283819,-0.0046811 0.0383268,-0.0126929 0.00994488,-0.00801575 0.0169685,-0.0194882 0.0210039,-0.0345394 0.0038189,-0.014248 0.00379134,-0.0277126 -0.00019685,-0.040315 -0.00386614,-0.012685 -0.0116299,-0.0227756 -0.0232205,-0.0301496z"/><path class="fil3" d="M1.85601 3.4516l-0.0990591 -0.0265394 -0.0395748 0.147689 0.10663 0.0285709c0.0183386,0.00491732 0.031378,0.00766142 0.0392283,0.00827165 0.0135669,0.00117717 0.0255748,0.000228346 0.035811,-0.00290157 0.0102362,-0.00312992 0.0195512,-0.00918504 0.0280354,-0.018122 0.00848425,-0.00894488 0.0145079,-0.0202559 0.0181654,-0.0339055 0.00429921,-0.0160472 0.0039252,-0.0309921 -0.00116929,-0.0450669 -0.00499606,-0.0140512 -0.0141417,-0.0253661 -0.0274055,-0.0340512 -0.0131732,-0.00865354 -0.0334567,-0.0166496 -0.0606614,-0.0239449z"/><path class="fil1" d="M1.60544 3.60776l7.87402e-006 -2.75591e-005 -0.0338701 -0.0090748 0.013311 -0.049685 0.0338701 0.0090748 0.00354331 -0.0132283 0.0809961 -0.302272 0.00354331 -0.0132283 -0.0338701 -0.0090748 0.013315 -0.049685 0.0338701 0.0090748 0.00902756 -0.0336929 0.0566929 0.0151929 -0.00902756 0.0336929 0.0332598 0.00891339 0.00902756 -0.0336929 0.0566969 0.015189 -0.0090315 0.0336929 0.014 0.00375197c0.032685,0.00875591 0.057748,0.0200669 0.0752559,0.0340512 0.0174094,0.0139567 0.0292756,0.0314488 0.0356063,0.0524764 0.00645669,0.0209567 0.00698819,0.0412874 0.00170079,0.0610197 -0.00488583,0.0182362 -0.0144882,0.0341417 -0.0286811,0.0476417 -0.0141929,0.0135 -0.0326378,0.0225512 -0.0553386,0.0271496 0.0238819,0.0145157 0.0403425,0.032811 0.0492795,0.0548622 0.00906693,0.0219724 0.010248,0.0454685 0.00357087,0.0703819 -0.0053937,0.0201299 -0.0146732,0.0376181 -0.0277638,0.0525906 -0.0130906,0.0149685 -0.0271063,0.0254213 -0.0420709,0.0314488 -0.0149409,0.00593307 -0.0324843,0.00881496 -0.0525,0.00857874 -0.0201181,-0.00026378 -0.0437795,-0.00403937 -0.0710866,-0.0113583l-0.016685 -0.0044685 -0.00902362 0.0336654 -0.0566929 -0.0151929 0.00902362 -0.0336654 -0.0332638 -0.00891339 -0.00901969 0.0336654 -0.0566929 -0.015189 0.00901969 -0.0336654zm0.123295 -0.232925l0.0925787 0.0248071c0.0251142,0.00672835 0.0436063,0.00987008 0.0553504,0.00949213 0.0155984,-0.000413386 0.0283819,-0.0046811 0.0383268,-0.0126969 0.00994488,-0.00801575 0.0169724,-0.0194843 0.0210039,-0.0345315 0.0038189,-0.014252 0.00379528,-0.0277165 -0.00019685,-0.0403228 -0.00386614,-0.0126772 -0.0116299,-0.0227677 -0.0232165,-0.0301457 -0.0115906,-0.00737795 -0.0327835,-0.0151929 -0.0634764,-0.0234173l-0.0856024 -0.022937 -0.0347677 0.129752zm-0.0530315 0.197917l0.10663 0.0285709c0.0183386,0.00491339 0.0313819,0.00766142 0.0392283,0.00827165 0.0135709,0.00117717 0.0255748,0.000228346 0.035811,-0.00290157 0.0102402,-0.00313386 0.0195512,-0.0091811 0.0280354,-0.018126 0.00848425,-0.00894094 0.0145039,-0.020252 0.0181654,-0.0339055 0.00429528,-0.0160433 0.00392126,-0.0309921 -0.00117323,-0.0450669 -0.00499213,-0.0140472 -0.0141378,-0.0253622 -0.0274055,-0.0340472 -0.0131693,-0.00865354 -0.0334528,-0.0166535 -0.0606614,-0.0239409l-0.0990591 -0.0265433 -0.0395709 0.147689z"/></g></svg>